<?xml version="1.0" encoding="utf-8"?>
<!-- Generator: Adobe Illustrator 19.2.1, SVG Export Plug-In . SVG Version: 6.00 Build 0)  -->
<svg version="1.1" id="layer" xmlns="http://www.w3.org/2000/svg" xmlns:xlink="http://www.w3.org/1999/xlink" x="0px" y="0px"
	 viewBox="0 0 652 652" style="enable-background:new 0 0 652 652;" xml:space="preserve">
<style type="text/css">
	.st0{fill:#00BEE1;}
	.st1{fill:#0067B1;}
</style>
<path class="st0" d="M50.1,357.3c0,9.3,0,25.6,13.6,25.6c10.5,0,14.1-9.3,14.1-16.1c0-29.6-57.3-36.4-57.3-85.5
	c0-24.9,14.1-45.2,40.8-45.2c28.4,0,39.4,20.7,40.1,50.6H73.2c0-9.3,0-24.9-12.6-24.9c-7.5,0-11.9,6-11.9,15.1
	c0,28.2,57.4,37.7,57.4,86c0,25.4-15.1,45.7-43.5,45.7c-33.8,0-40.6-28.4-40.6-51.3H50.1z"/>
<rect x="114.2" y="239.4" class="st0" width="28.2" height="27"/>
<rect x="114.2" y="288.3" class="st0" width="28.2" height="117"/>
<path class="st0" d="M199.8,330.9c-0.5-18.2-2.2-24.9-8.3-24.9c-6.3,0-7.8,7-7.8,43.8c0,29.4,2.4,36.4,9,36.4
	c8.5,0,9-13.5,10.7-25.6l21.6,0.7c-0.5,21.7-5.1,45.4-33.8,45.9c-22.1,0-39.1-16.1-39.1-60.3c0-44.3,17-60.4,39.1-60.4
	c27.2,0,31.8,20.5,33.8,43.8L199.8,330.9z"/>
<polygon class="st0" points="234.5,239.3 262.7,239.3 262.7,329.1 263.2,329.1 284.8,288.3 308.2,288.3 288.7,323.7 311.6,405.3 
	283.4,405.3 269.5,352.6 269.3,352.6 262.7,365.4 262.7,405.3 234.5,405.3 "/>
<polygon class="st1" points="323,239.3 354.6,239.3 354.6,308.8 355.1,308.8 381.3,239.3 409.5,239.3 385.9,295 414.4,405.3 
	384,405.3 366.5,330.9 366,330.9 354.6,357 354.6,405.3 323,405.3 "/>
<rect x="422.4" y="239.4" class="st1" width="28.2" height="27"/>
<rect x="422.4" y="288.3" class="st1" width="28.2" height="117"/>
<path class="st1" d="M511.1,383.8c-1.4,2.1-4.4,3.7-8.5,3.7c-8.3,0-9.7-5.4-9.7-41.3c0-36.8,2.2-41.7,10.5-41.7
	c3.6,0,6.6,1.6,7.8,3.7V383.8z M511.1,239.3v55.5h-0.5c-3.4-4.4-9.5-8.4-17.7-8.4c-20.7,0-30.1,21.4-30.1,60.1
	c0,38.2,7.3,60.6,27.7,60.6c11.2,0,15.8-5.1,21.4-11.2h0.5v9.3h27V239.3H511.1z"/>
<path class="st1" d="M595.6,320.9c-1-7.2-2.7-14.9-12.4-14.9c-5.3,0-8.5,4.9-8.5,10c0,19.1,45.7,21,45.7,56.6
	c0,20.3-14.1,34.5-35.9,34.5c-23.1,0-32.6-13.3-35-34l22.1-3.3c1.9,12.6,4.9,17.7,14.1,17.7c5.8,0,9.5-4.2,9.5-9.6
	c0-18.4-43.7-19.6-43.7-59.2c0-18.6,13.9-32.4,33.5-32.4c19.7,0,29.4,13.8,31.1,31.2L595.6,320.9z"/>
<path class="st1" d="M597.4,253.3h1.6c1.4,0,2.1-0.7,2.1-2c0-1.2-0.7-1.8-2.1-1.8h-1.6V253.3z M599.1,247.6c3.2,0,4.9,1.2,4.9,3.7
	c0,1.6-0.7,2.6-2.3,3.3l2.7,5.9h-3.2l-2-5.3h-1.8v5.3h-2.9v-12.9H599.1z M598.8,243.3c-6.2,0-11.3,4.9-11.3,10.8
	c0,6,5.1,10.8,11.3,10.8c6.2,0,11.3-4.9,11.3-10.8C610.1,248.1,605,243.3,598.8,243.3 M598.8,266.5c-7.1,0-13-5.6-13-12.4
	c0-6.9,5.8-12.4,13-12.4c7.2,0,13,5.5,13,12.4C611.8,260.9,605.9,266.5,598.8,266.5"/>
</svg>
